<svg xmlns="http://www.w3.org/2000/svg" preserveAspectRatio="xMidYMid" width="19.969" height="21" viewBox="0 0 19.969 21"><defs><style>.cls-1{fill:#f6bd04;fill-rule:evenodd}</style></defs><path d="M19.377 14.277c.421-.549.623-1.138.597-1.744-.026-.667-.318-1.19-.558-1.51.279-.712.386-1.832-.546-2.701-.684-.637-1.844-.922-3.451-.843-1.13.052-2.076.268-2.114.276H13.3c-.214.04-.442.088-.674.141-.017-.281.03-.979.537-2.552.601-1.87.567-3.302-.112-4.259C12.338.079 11.199 0 10.864 0c-.323 0-.619.136-.83.386-.477.567-.421 1.612-.361 2.095-.567 1.555-2.157 5.366-3.502 6.425-.026.018-.047.039-.069.061a4.712 4.712 0 0 0-.842 1.292 1.739 1.739 0 0 0-.851-.22H1.788C.799 10.039 0 10.86 0 11.866v7.136c0 1.01.804 1.827 1.788 1.827h2.621c.383 0 .739-.123 1.031-.334l1.01.123c.155.022 2.905.378 5.729.321.511.039.992.061 1.439.061.77 0 1.44-.061 1.999-.184 1.315-.286 2.213-.857 2.668-1.696a2.745 2.745 0 0 0 .293-1.681c.855-.791 1.005-1.665.975-2.28a3.006 3.006 0 0 0-.176-.882zM1.788 19.643a.636.636 0 0 1-.628-.641v-7.141c0-.355.284-.641.628-.641h2.621c.348 0 .628.29.628.641v7.137a.636.636 0 0 1-.628.641H1.788v.004zm16.489-5.88a.6.6 0 0 0-.078.716c0 .004.177.312.198.733.03.575-.241 1.085-.808 1.52a.607.607 0 0 0-.198.676c0 .004.185.584-.116 1.133-.288.527-.928.904-1.899 1.115-.778.172-1.835.202-3.133.097h-.06c-2.763.061-5.556-.308-5.587-.312h-.004l-.434-.053c.026-.123.039-.254.039-.386v-7.141c0-.188-.03-.373-.082-.544.078-.294.292-.949.8-1.506 1.929-1.564 3.816-6.838 3.897-7.066a.566.566 0 0 0 .026-.295c-.073-.491-.047-1.093.056-1.273.228.004.842.07 1.212.593.438.619.421 1.726-.052 3.192-.722 2.236-.782 3.413-.21 3.931a.92.92 0 0 0 .936.171c.262-.061.512-.114.748-.154.017-.004.039-.008.056-.013 1.319-.294 3.683-.474 4.504.29.696.65.202 1.511.146 1.603a.596.596 0 0 0 .103.764c.004.004.455.439.477 1.023.017.391-.163.791-.537 1.186z" class="cls-1"/></svg>