<svg xmlns="http://www.w3.org/2000/svg" preserveAspectRatio="xMidYMid" width="22" height="19.91" viewBox="0 0 22 19.91"><defs><style>.cls-1{fill:#f6bd04;fill-rule:evenodd}</style></defs><path d="M20.471 10.281l-1.172 7.859c-.15 1.009-1.066 1.77-2.13 1.77H5.042c-1.057 0-1.95-.725-2.123-1.723l-1.375-7.905C.681 10.219 0 9.526 0 8.683v-.916c0-.884.751-1.604 1.674-1.604h1.14l.027-.028L9.058.178a.74.74 0 0 1 1.014 0 .666.666 0 0 1 0 .972L4.841 6.163h12.318L11.928 1.15a.666.666 0 0 1 0-.972.74.74 0 0 1 1.014 0l6.217 5.957.027.028h1.14c.923 0 1.674.72 1.674 1.604v.916c0 .838-.674 1.528-1.529 1.598zm.094-2.514a.234.234 0 0 0-.239-.229H1.674a.234.234 0 0 0-.239.229v.916c0 .127.107.23.239.23h7.174c.396 0 .717.307.717.687 0 .38-.321.687-.717.687H2.999l1.335 7.674a.706.706 0 0 0 .708.574h12.127c.354 0 .66-.253.71-.59l1.142-7.658h-5.869c-.396 0-.717-.308-.717-.687 0-.38.321-.687.717-.687h7.174a.235.235 0 0 0 .239-.23v-.916zM11 17.161c-.396 0-.717-.308-.717-.688v-4.124c0-.379.321-.687.717-.687.396 0 .717.308.717.687v4.124c0 .38-.321.688-.717.688zm-4.304 0c-.397 0-.718-.308-.718-.688v-4.124c0-.379.321-.687.718-.687.396 0 .717.308.717.687v4.124c0 .38-.321.688-.717.688zm8.608-5.499c.397 0 .718.308.718.687v4.124c0 .38-.321.688-.718.688-.396 0-.717-.308-.717-.688v-4.124c0-.379.321-.687.717-.687z" class="cls-1"/></svg>