<svg xmlns="http://www.w3.org/2000/svg" preserveAspectRatio="xMidYMid" width="22" height="22" viewBox="0 0 22 22"><defs><style>.cls-1{fill:#f6bd04;fill-rule:evenodd}</style></defs><path d="M22 9.748L9.748 22l-1.923-1.923a4.678 4.678 0 0 1-4.762-1.14 4.678 4.678 0 0 1-1.14-4.762L0 12.252 12.252 0l1.923 1.923a4.678 4.678 0 0 1 4.762 1.14 4.678 4.678 0 0 1 1.14 4.762L22 9.748zm-3.571-1.596l.196-.439a3.304 3.304 0 0 0-.676-3.662 3.304 3.304 0 0 0-3.662-.676l-.439.196-1.596-1.595L1.976 12.252l1.595 1.596-.196.439a3.305 3.305 0 0 0 .676 3.662 3.305 3.305 0 0 0 3.662.676l.439-.196 1.596 1.595L20.024 9.748l-1.595-1.596zm-6.237 7.424l-1.39.148-.992-9.301 1.389-.148.993 9.301zm3.488-6.012c.369.369.572.86.572 1.381a1.94 1.94 0 0 1-.572 1.381 1.946 1.946 0 0 1-1.381.571c-.5 0-1-.19-1.381-.571a1.94 1.94 0 0 1-.572-1.381c0-.521.203-1.012.572-1.381.761-.761 2-.761 2.762 0zm-1.774 1.774a.556.556 0 1 0 .786-.786.556.556 0 0 0-.786.786zm-6.197 1.678a1.94 1.94 0 0 1-1.381-.573 1.937 1.937 0 0 1-.572-1.38A1.954 1.954 0 0 1 9.09 9.682a1.955 1.955 0 0 1-1.381 3.334zm.393-2.347a.555.555 0 0 0-.949.394.553.553 0 0 0 .556.555.557.557 0 0 0 .393-.949z" class="cls-1"/></svg>