<svg xmlns="http://www.w3.org/2000/svg" preserveAspectRatio="xMidYMid" width="26" height="21" viewBox="0 0 26 21"><defs><style>.cls-1{fill:#f6bd04;fill-rule:evenodd}</style></defs><path d="M21.283 11.454c-3.56 0-6.458-2.348-6.468-5.237l-.014-.388C14.57 2.582 11.34 0 7.401 0 3.671 0 .577 2.315.062 5.318a4.866 4.866 0 0 0-.062.8v8.68C0 18.218 3.313 21 7.401 21c3.172 0 5.884-1.675 6.941-4.023C15.399 19.325 18.111 21 21.283 21H26v-9.546h-4.717zM7.401.949c3.567 0 6.468 2.357 6.468 5.253 0 1.464-.743 2.79-1.938 3.744V5.844c.003-.275-.019-.767-.121-1.148-.322-1.211-1.243-2.254-2.528-2.861a7.398 7.398 0 0 0-3.753-.661A7.88 7.88 0 0 1 7.401.949zM1.193 4.726a3.57 3.57 0 0 1 .189-.382c1.499-2.156 4.862-2.896 7.497-1.65 1.032.488 1.767 1.307 2.017 2.247.216.812.057 1.66-.449 2.388-.456.657-1.229 1.122-2.124 1.295V4.602a.475.475 0 0 0-.272-.429c-1.383-.654-3.097-.26-3.902.899a2.644 2.644 0 0 0-.489 1.519v3.892C2.011 9.53.933 7.967.933 6.202c0-.513.091-1.008.26-1.476zm4.266 4.461a4.864 4.864 0 0 0 2.421.449h.001c1.245-.083 2.377-.623 3.104-1.462v2.397c-1.026.558-2.259.883-3.584.883-1 0-1.948-.185-2.795-.516V8.62c.246.224.533.416.853.567zm-.534-3.572c.356-.512 1.033-.801 1.726-.801.244 0 .491.036.726.111v3.77a3.923 3.923 0 0 1-1.515-.366C5.247 8.038 4.81 7.554 4.663 7a1.654 1.654 0 0 1 .262-1.385zm8.944 9.183c0 2.896-2.901 5.253-6.468 5.253-3.566 0-6.468-2.357-6.468-5.253V9.23c.18.269.384.525.608.767v1.393a.474.474 0 1 0 .946 0v-.549c.297.221.616.422.953.601v1.266a.474.474 0 1 0 .946 0v-.841c.416.156.854.28 1.307.37v1.051c0 .262.212.475.473.475a.474.474 0 0 0 .473-.475v-.917a9.099 9.099 0 0 0 1.524 0v.917c0 .262.212.475.473.475a.474.474 0 0 0 .473-.475v-1.051c.453-.09.89-.214 1.307-.37v.841c0 .262.212.475.473.475a.474.474 0 0 0 .473-.475v-1.266c.468-.26.773-.468.953-.601v.549a.473.473 0 1 0 .946 0V9.997c.224-.243.428-.499.608-.768v5.569zm8.997-2.394v7.647h-1.583c-3.555 0-6.449-2.342-6.467-5.226V9.231c.109.163.228.321.354.475v1.499a.474.474 0 1 0 .946 0v-.561c.159.13.326.254.499.372v1.481a.474.474 0 1 0 .946 0v-.934c.35.171.718.318 1.101.44v1.483a.474.474 0 1 0 .946 0v-1.242m5.446 7.807h-1.242v-7.648h1.242v7.648z" class="cls-1"/></svg>