<svg xmlns="http://www.w3.org/2000/svg" preserveAspectRatio="xMidYMid" width="20.91" height="21" viewBox="0 0 20.91 21"><defs><style>.cls-1{fill:#f6bd04;fill-rule:evenodd}</style></defs><path d="M20.901 7.936a.591.591 0 0 0-.468-.415l-6.526-.975L10.97.339A.58.58 0 0 0 10.451 0a.578.578 0 0 0-.52.343L7.033 6.568.507 7.588a.59.59 0 0 0-.468.416.623.623 0 0 0 .15.623l4.736 4.825-1.095 6.835c-.039.23.051.46.232.596a.56.56 0 0 0 .339.117.54.54 0 0 0 .271-.072l5.826-3.246 5.844 3.21a.567.567 0 0 0 .266.067c.317 0 .579-.275.579-.609a.493.493 0 0 0-.017-.14l-1.129-6.794 4.706-4.853a.617.617 0 0 0 .154-.627zm-5.882 4.835a.623.623 0 0 0-.163.541l.983 5.928-5.075-2.786a.562.562 0 0 0-.541 0l-5.058 2.817.949-5.936a.629.629 0 0 0-.167-.537L1.842 8.609l5.663-.885a.582.582 0 0 0 .434-.334l2.516-5.404 2.55 5.39a.59.59 0 0 0 .438.334l5.668.849-4.092 4.212z" class="cls-1"/></svg>