<svg xmlns="http://www.w3.org/2000/svg" viewBox="0 0 97.8 97.8"><path d="M48.9 0C21.9 0 0 21.9 0 48.9s21.9 48.9 48.9 48.9 48.9-21.9 48.9-48.9S75.9 0 48.9 0zm21.4 38.3v1.2c0 14.9-11.3 30.2-30.2 30.2-5.8 0-11.4-1.7-16.3-4.8-.1-.1-.1-.2-.1-.3 0-.1.2-.2.3-.2.8.1 1.7.1 2.5.1 4.5 0 8.8-1.4 12.4-4-4.3-.4-8-3.3-9.4-7.5 0-.1 0-.2.1-.2.1-.1.2-.1.2-.1 1.2.2 2.4.2 3.6.1-4.5-1.4-7.6-5.6-7.6-10.3v-.1c0-.1.1-.2.1-.2h.3c1.2.6 2.4 1.1 3.8 1.2-2.6-2-4.1-5.1-4.1-8.4 0-1.9.5-3.8 1.5-5.4 0-.1.1-.1.2-.1s.2 0 .2.1C32.9 36 40.7 40 48.9 40.5c-.1-.7-.2-1.4-.2-2.1 0-6 4.8-10.8 10.8-10.8 2.9 0 5.8 1.2 7.8 3.3 2.3-.5 4.5-1.3 6.5-2.5.1-.1.2 0 .3 0 .1.1.1.2.1.3-.7 2.1-2 4-3.8 5.3 1.7-.3 3.3-.8 4.9-1.5.1 0 .2 0 .3.1.1.1.1.2 0 .3a24.7 24.7 0 0 1-5.3 5.4z"/></svg>