<svg xmlns="http://www.w3.org/2000/svg" preserveAspectRatio="xMidYMid" width="20" height="20" viewBox="0 0 20 20"><defs><style>.cls-1{fill:#f6bd04;fill-rule:evenodd}</style></defs><path d="M18.96 12.1l-1.403.233a7.825 7.825 0 0 1-.564 1.362l.827 1.162a1.237 1.237 0 0 1-.134 1.592l-1.244 1.245a1.226 1.226 0 0 1-.873.363c-.259 0-.51-.079-.718-.23L13.694 17c-.434.23-.89.418-1.362.564l-.238 1.404A1.234 1.234 0 0 1 10.875 20H9.113c-.606 0-1.12-.435-1.22-1.032l-.234-1.404a7.819 7.819 0 0 1-1.319-.543l-1.174.836a1.226 1.226 0 0 1-1.587-.134l-1.244-1.245a1.231 1.231 0 0 1-.134-1.592l.823-1.145a7.796 7.796 0 0 1-.573-1.357l-1.419-.243A1.233 1.233 0 0 1 0 10.921V9.162c0-.605.434-1.119 1.032-1.22l1.386-.234c.142-.472.326-.927.556-1.366l-.836-1.174a1.237 1.237 0 0 1 .134-1.592l1.249-1.245c.229-.234.543-.363.872-.363.259 0 .51.079.719.23l1.148.827c.435-.234.89-.426 1.358-.573l.242-1.42C7.96.434 8.474 0 9.079 0h1.758c.606 0 1.12.434 1.22 1.032l.234 1.387c.488.146.96.343 1.411.581l1.161-.827a1.226 1.226 0 0 1 1.587.133l1.245 1.245c.43.426.484 1.099.133 1.592L17.001 6.3c.23.435.418.89.564 1.362l1.403.239a1.22 1.22 0 0 1 1.024 1.22v1.759c0 .605-.435 1.119-1.032 1.22zm-.083-2.979a.108.108 0 0 0-.092-.109l-1.754-.297a.553.553 0 0 1-.451-.413 6.679 6.679 0 0 0-.727-1.751.565.565 0 0 1 .025-.614l1.032-1.45a.113.113 0 0 0-.013-.142L15.653 3.1a.114.114 0 0 0-.08-.033.115.115 0 0 0-.062.021L14.07 4.124a.565.565 0 0 1-.614.025 6.791 6.791 0 0 0-1.792-.736.563.563 0 0 1-.417-.455l-.293-1.742a.107.107 0 0 0-.108-.092H9.088a.107.107 0 0 0-.109.092l-.301 1.767a.57.57 0 0 1-.413.451 6.629 6.629 0 0 0-1.746.736.574.574 0 0 1-.618-.025L4.46 3.117a.099.099 0 0 0-.062-.021.107.107 0 0 0-.08.033L3.074 4.374a.114.114 0 0 0-.013.142l1.04 1.463c.13.179.142.417.029.61a6.712 6.712 0 0 0-.714 1.754.563.563 0 0 1-.455.418l-1.742.293a.107.107 0 0 0-.091.108v1.759c0 .055.037.101.091.109l1.767.301a.57.57 0 0 1 .451.413c.159.615.409 1.204.735 1.747a.57.57 0 0 1-.025.618L3.12 15.55a.114.114 0 0 0 .012.143l1.245 1.245a.11.11 0 0 0 .079.033.121.121 0 0 0 .063-.021l1.461-1.04a.55.55 0 0 1 .326-.105.58.58 0 0 1 .284.075c.539.31 1.115.548 1.712.702.213.055.376.23.414.452l.292 1.754a.108.108 0 0 0 .109.092h1.758c.054 0 .1-.037.109-.092l.296-1.754a.554.554 0 0 1 .413-.452 6.653 6.653 0 0 0 1.75-.727.567.567 0 0 1 .614.025l1.449 1.032a.102.102 0 0 0 .063.021c.021 0 .05-.004.079-.033l1.245-1.245a.113.113 0 0 0 .012-.142l-1.031-1.454a.563.563 0 0 1-.025-.614 6.67 6.67 0 0 0 .726-1.751.56.56 0 0 1 .452-.413l1.754-.293a.107.107 0 0 0 .091-.108h.005V9.121zm-8.879 5.193a4.318 4.318 0 0 1-4.314-4.316 4.318 4.318 0 0 1 4.314-4.316 4.318 4.318 0 0 1 4.314 4.316 4.318 4.318 0 0 1-4.314 4.316zm0-7.504a3.19 3.19 0 0 0 0 6.376 3.19 3.19 0 0 0 0-6.376z" class="cls-1"/></svg>