<?xml version="1.0" encoding="utf-8"?>
<!-- Generator: Adobe Illustrator 17.0.0, SVG Export Plug-In . SVG Version: 6.00 Build 0)  -->
<!DOCTYPE svg PUBLIC "-//W3C//DTD SVG 1.1//EN" "http://www.w3.org/Graphics/SVG/1.1/DTD/svg11.dtd">
<svg version="1.1" id="Layer_1" xmlns="http://www.w3.org/2000/svg" xmlns:xlink="http://www.w3.org/1999/xlink" x="0px" y="0px"
	 width="160.125px" height="48.75px" viewBox="0 0 160.125 48.75" enable-background="new 0 0 160.125 48.75" xml:space="preserve">
<g>
	<g>
		<path fill="#0075BF" d="M16.146,31.174l0.035-5.356c4.517-1.48,7.556-1.898,12.352-1.898c6.759,0,13.29,1.479,19.225,4.285
			L29.508,1.862L3,40.127c7.467-5.233,16.318-8.133,25.6-8.133c4.796,0,7.854,0.424,12.37,1.904l0.017,5.532
			c-3.984-1.306-8.152-1.968-12.387-1.968c-8.867,0-17.29,2.887-24.199,8.213h55.458l-3.59-5.182
			c-7.463-7.281-17.291-11.287-27.737-11.287C24.297,29.206,20.13,29.868,16.146,31.174z"/>
	</g>
</g>
<g>
	<path fill="#0075BF" d="M71.103,6.552h5.025c2.331,0,4.016,0.339,5.054,1.019c1.038,0.679,1.557,1.752,1.557,3.219
		c0,0.988-0.255,1.81-0.765,2.466c-0.509,0.657-1.243,1.069-2.2,1.239v0.116c1.189,0.224,2.063,0.666,2.622,1.326
		c0.56,0.66,0.84,1.554,0.84,2.68c0,1.521-0.531,2.711-1.592,3.572c-1.061,0.861-2.538,1.291-4.429,1.291h-6.113L71.103,6.552
		L71.103,6.552z M73.871,13.545h2.663c1.158,0,2.003-0.183,2.536-0.55c0.532-0.367,0.799-0.99,0.799-1.87
		c0-0.795-0.288-1.37-0.863-1.725c-0.575-0.355-1.488-0.532-2.739-0.532H73.87L73.871,13.545L73.871,13.545z M73.871,15.791v5.361
		h2.941c1.158,0,2.032-0.222,2.623-0.666c0.591-0.444,0.886-1.144,0.886-2.101c0-0.88-0.301-1.532-0.903-1.957
		c-0.602-0.424-1.517-0.637-2.744-0.637L73.871,15.791L73.871,15.791z"/>
	<path fill="#0075BF" d="M94.481,23.479l-0.544-1.783h-0.093c-0.617,0.78-1.239,1.311-1.864,1.592
		c-0.625,0.282-1.428,0.423-2.408,0.423c-1.258,0-2.241-0.339-2.947-1.019c-0.706-0.679-1.059-1.64-1.059-2.883
		c0-1.32,0.49-2.316,1.471-2.988c0.98-0.672,2.474-1.038,4.481-1.1l2.212-0.07v-0.683c0-0.818-0.191-1.43-0.573-1.835
		c-0.382-0.405-0.974-0.608-1.777-0.608c-0.656,0-1.285,0.097-1.888,0.29c-0.602,0.193-1.181,0.421-1.737,0.683l-0.88-1.945
		c0.695-0.362,1.455-0.639,2.281-0.828c0.826-0.189,1.606-0.283,2.339-0.283c1.629,0,2.858,0.355,3.688,1.066
		c0.83,0.71,1.245,1.826,1.245,3.346v8.626L94.481,23.479L94.481,23.479z M90.429,21.627c0.988,0,1.781-0.276,2.379-0.828
		c0.598-0.552,0.897-1.326,0.897-2.321v-1.112l-1.644,0.07c-1.282,0.046-2.213,0.26-2.796,0.643
		c-0.583,0.382-0.874,0.967-0.874,1.754c0,0.571,0.169,1.013,0.509,1.326C89.24,21.471,89.749,21.627,90.429,21.627z"/>
	<path fill="#0075BF" d="M100.062,7.281c0-0.486,0.133-0.86,0.399-1.123c0.267-0.262,0.647-0.394,1.141-0.394
		c0.479,0,0.851,0.131,1.118,0.394s0.399,0.637,0.399,1.123c0,0.463-0.133,0.828-0.399,1.094c-0.267,0.267-0.639,0.399-1.118,0.399
		c-0.494,0-0.874-0.133-1.141-0.399C100.195,8.109,100.062,7.744,100.062,7.281z M102.945,23.479h-2.721V10.673h2.721V23.479z"/>
	<path fill="#0075BF" d="M127.387,23.479h-3.393L115.67,9.991h-0.093l0.058,0.752c0.108,1.436,0.162,2.748,0.162,3.937v8.8h-2.513
		V6.552h3.358l8.302,13.42h0.07c-0.015-0.178-0.046-0.824-0.093-1.94c-0.046-1.115-0.07-1.986-0.07-2.611V6.552h2.536V23.479z"/>
	<path fill="#0075BF" d="M140.598,23.479l-0.382-1.679h-0.139c-0.378,0.594-0.917,1.062-1.615,1.401
		c-0.699,0.339-1.495,0.509-2.391,0.509c-1.551,0-2.71-0.386-3.473-1.158c-0.765-0.772-1.146-1.941-1.146-3.509v-8.372h2.744v7.897
		c0,0.981,0.201,1.716,0.602,2.205c0.401,0.49,1.03,0.735,1.888,0.735c1.142,0,1.982-0.342,2.518-1.025
		c0.536-0.683,0.804-1.827,0.804-3.433v-6.38h2.733v12.806C142.741,23.479,140.598,23.479,140.598,23.479z"/>
	<path fill="#0075BF" d="M157.978,17.053c0,2.092-0.537,3.725-1.609,4.897c-1.073,1.174-2.566,1.76-4.481,1.76
		c-1.197,0-2.254-0.27-3.172-0.81c-0.919-0.54-1.625-1.316-2.119-2.327c-0.494-1.011-0.741-2.184-0.741-3.52
		c0-2.076,0.532-3.697,1.598-4.863c1.066-1.165,2.566-1.748,4.504-1.748c1.852,0,3.319,0.596,4.399,1.789
		C157.438,13.423,157.978,15.031,157.978,17.053z M148.657,17.053c0,2.956,1.092,4.435,3.276,4.435c2.161,0,3.242-1.478,3.242-4.435
		c0-2.926-1.089-4.388-3.265-4.388c-1.142,0-1.97,0.378-2.484,1.135C148.914,14.556,148.657,15.641,148.657,17.053z"/>
</g>
<g>
	<path fill="#404B5B" d="M71.262,31.866V30.15c2.018,0.132,4.338,0.188,8.016,0.188c3.697,0,6.055-0.057,8.016-0.188v1.717
		c-1.829-0.132-4.017-0.188-7.337-0.208c-0.264,1.131-0.509,2.018-0.811,2.905c2.792,0,4.262-0.038,5.961-0.094
		c-0.132,0.717-0.151,1.396-0.151,2.829v5.546c0,1.321,0.038,1.886,0.151,2.792h-1.849v-1.452h-8.054v1.886h-1.849
		c0.132-0.868,0.151-1.471,0.151-2.754v-6.092c0-1.321-0.038-1.886-0.151-2.792c1.056,0.057,2.678,0.094,4.319,0.132
		c0.245-0.924,0.377-1.924,0.434-2.905C75.091,31.678,73.016,31.753,71.262,31.866z M83.258,35.865h-8.054v2.66h8.054L83.258,35.865
		L83.258,35.865z M75.204,42.825h8.054v-2.962h-8.054V42.825z"/>
	<path fill="#404B5B" d="M113.909,44.126c-0.49,0.679-0.698,1.056-0.811,1.339c-0.302-0.434-0.755-0.981-1.188-1.415
		c0.547-0.509,0.717-1.188,0.717-2.207v-5.809c-0.924,0-1.509,0.038-1.962,0.094v-1.623c0.453,0.057,1.037,0.094,1.754,0.094
		c0.717,0,1.282-0.038,1.735-0.094c-0.094,0.566-0.151,1.49-0.151,2.358v4.923c0.415-0.49,0.735-0.962,1.094-1.584
		c0.17,0.585,0.434,1.094,0.66,1.339L113.909,44.126z M113.627,33.319c-0.415-0.962-1.056-1.943-1.811-2.772l1.509-0.849
		c0.566,0.962,1.245,1.943,1.868,2.754L113.627,33.319z M116.663,43.674c-0.208-0.377-0.641-0.849-1.075-1.113
		c1.396-1.094,2.735-2.829,3.772-5.187c-1.528,0.019-2.942,0.075-3.867,0.17v-1.584c1.037,0.132,2.584,0.151,4.282,0.151
		c0.17-0.773,0.302-1.735,0.321-2.15c0.566,0.245,1.377,0.49,1.792,0.547c0.226,0.038,0.245,0.113,0.019,0.264
		c-0.132,0.075-0.321,0.528-0.585,1.339h1.735c1.735,0,3.376-0.038,4.414-0.151v1.584c-1.037-0.113-2.678-0.17-4.414-0.17h-2.15
		c-0.226,0.623-0.547,1.264-0.905,1.905h2.395c1.339,0.019,2.792-0.019,3.414-0.075c-0.057,0.339-0.075,0.641-0.075,1.377v2.792
		c0,0.849,0.057,1.547,0.151,2.358h-1.622v-1.037h-4.697v1.302h-1.584c0.113-0.868,0.151-1.509,0.151-2.358v-1.698
		C117.701,42.485,117.21,43.051,116.663,43.674z M122.888,31.451c0-1.302-0.038-2.037-0.113-2.566
		c0.49,0.075,1.188,0.113,1.66,0.113c0.226,0,0.264,0.151,0.075,0.264c-0.17,0.094-0.208,0.17-0.208,0.396v1.792
		c1.019-0.019,1.999-0.057,2.603-0.151v1.566c-0.604-0.094-1.584-0.151-2.603-0.17v1.49h-1.415v-1.49h-3.263v1.641h-1.452v-1.623
		c-0.849,0.019-1.641,0.075-2.169,0.151V31.3c0.547,0.094,1.321,0.132,2.169,0.151c0-1.245-0.019-1.962-0.113-2.49
		c0.49,0.075,1.226,0.113,1.698,0.113c0.226,0,0.264,0.151,0.075,0.264c-0.17,0.094-0.208,0.17-0.208,0.396v1.717L122.888,31.451
		L122.888,31.451z M124.265,40.505h-4.697v2.962h4.697V40.505z"/>
</g>
</svg>
