<svg xmlns="http://www.w3.org/2000/svg" viewBox="0 0 256 144" clip-path="url(#a)" width="1920" height="1080"><defs><clipPath id="a" clipPathUnits="objectBoundingBox"><path d="M0 0h256v144H0z"/></clipPath></defs><path fill="#4E80A0" d="M0 0h256v144H0z"/><path d="M287 109l-316-3 136 276z" fill="#042E50" fill-opacity=".98"/><path d="M-80 74l253-231L300 84z" fill="#88D1FE" fill-opacity=".95"/><path d="M241 120l-204-4 105-75z" fill="#0080E6" fill-opacity=".51"/><path d="M-15 69l256 37-244 2z" fill="#0072BE" fill-opacity=".9"/><path d="M209 73l6 45 90-27z" fill="#006ABF" fill-opacity=".72"/><path d="M55 82l25 20 13-39z" fill="#00A1FF" fill-opacity=".48"/><path d="M224 144l-241-36L7 236z" fill="#0F0A06" fill-opacity=".46"/><path d="M194-219L120 94-6 28z" fill="#A9E0FE" fill-opacity=".32"/><path d="M179 128L77 70l40 62z" fill="#0073C4" fill-opacity=".45"/><path d="M53 84l-70-6 54-18z" fill="#28AAFB" fill-opacity=".62"/><path d="M303-19L152 91 133-8z" fill="#98D6FA" fill-opacity=".57"/><path d="M284 99l-125 34 184 37z" fill="#0D0C0C" fill-opacity=".47"/><path d="M122 56L86 95l88-6z" fill="#27B2FF" fill-opacity=".55"/><path d="M216 99l-40-29 73 1z" fill="#009EFF" fill-opacity=".34"/><path d="M174 71l-22-19 33 6z" fill="#ACDDFD" fill-opacity=".61"/><path d="M183 58l15 11-23 11z" fill="#23A2F7" fill-opacity=".5"/><path d="M130 133l48-55 85 29z" fill="#00549A" fill-opacity=".56"/><path d="M308 100L92 111l86-32z" fill="#006AB4" fill-opacity=".66"/><path d="M80 120l74-22-2 28z" fill="#059" fill-opacity=".63"/><path d="M226 103l-12 21 79-34z" fill="#004C8A" fill-opacity=".61"/><path d="M-1 108l191 13L1 91z" fill="#005193" fill-opacity=".67"/><path d="M81 91l-24 26 34 12z" fill="#005293" fill-opacity=".52"/><path d="M38 150L2 104l45 10z" fill="#091D2D" fill-opacity=".58"/><path d="M102 74L81 57l52-9z" fill="#C0E7FC" fill-opacity=".44"/><path d="M187 82l93-98-62 98z" fill="#A6DDFD" fill-opacity=".3"/><path d="M117 47l-92 6 30 31z" fill="#93D3FA" fill-opacity=".53"/><path d="M83 64l22 32-45-11z" fill="#009CF5" fill-opacity=".42"/><path d="M203 83l65-6 10 15z" fill="#00A5FA" fill-opacity=".48"/><path d="M240 65l-33 10 15 15z" fill="#23A7F8" fill-opacity=".53"/><path d="M35 111l54-24 14 10z" fill="#006CB5" fill-opacity=".55"/><path d="M152 96l17-4 18-33z" fill="#14ACFF" fill-opacity=".45"/><path d="M139 92l-46-6 28 15z" fill="#0091E5" fill-opacity=".62"/><path d="M34 82l-68 20 16-45z" fill="#029DF4" fill-opacity=".55"/><path d="M222 113l-24 17 11-13z" fill="#032F50" fill-opacity=".56"/><path d="M127 124l69-9-37 20z" fill="#005193" fill-opacity=".6"/><path d="M107 171l12-47 11 6z" fill="#081D2E" fill-opacity=".65"/><path d="M195 81l-14-1 3-16z" fill="#2AA9F9" fill-opacity=".51"/><path d="M35 83l20-7-19-11z" fill="#82C7FC" fill-opacity=".48"/><path d="M223 37l-10 39-25-9z" fill="#ACDCF8" fill-opacity=".32"/><path d="M237 77L225-40l72 140z" fill="#93D2F8" fill-opacity=".55"/><path d="M229 116l-5 14 45-22z" fill="#091B29" fill-opacity=".63"/><path d="M177 77l-27 14-4-40z" fill="#5FBAFD" fill-opacity=".56"/><path d="M134 92L97 81l61-5z" fill="#44B4FF" fill-opacity=".68"/><path d="M65 83l-14-1 49-15z" fill="#42B2FC" fill-opacity=".59"/><path d="M167 133l23 10-36-10z" fill="#0A1A27" fill-opacity=".52"/><path d="M71 67l34 20 15-1z" fill="#62BDFB" fill-opacity=".66"/><path d="M53 80l-23 2 45 25z" fill="#006DB5" fill-opacity=".67"/><path d="M19 118l-6-15 15 4z" fill="#061A2A" fill-opacity=".33"/><path d="M254 111l-20 1 27-14z" fill="#004783" fill-opacity=".4"/><path d="M119 63l30 7-8-30z" fill="#33B2FF" fill-opacity=".52"/></svg>