<?xml version="1.0" encoding="utf-8"?>
<!-- Generator: Adobe Illustrator 17.0.0, SVG Export Plug-In . SVG Version: 6.00 Build 0)  -->
<!DOCTYPE svg PUBLIC "-//W3C//DTD SVG 1.1//EN" "http://www.w3.org/Graphics/SVG/1.1/DTD/svg11.dtd">
<svg version="1.1" id="Режим_редактирования_символов"
	 xmlns="http://www.w3.org/2000/svg" xmlns:xlink="http://www.w3.org/1999/xlink" x="0px" y="0px" width="30px" height="30px"
	 viewBox="0 0 30 30" enable-background="new 0 0 30 30" xml:space="preserve">
<symbol  id="Such_x5F_Icon" viewBox="-15 -15 30 30">
	<path fill="#0278C0" d="M2.989,3.164c0,3.393-2.76,6.153-6.153,6.153c-3.393,0-6.153-2.76-6.153-6.153
		c0-3.393,2.76-6.153,6.153-6.153C0.229-2.989,2.989-0.229,2.989,3.164z M0.465,0.738C0.06-0.022-0.607-0.663-1.417-1.053
		C-2.228-1.445-3.169-1.575-4.075-1.42C-4.528-1.344-4.969-1.19-5.379-0.981C-5.789-0.767-6.164-0.49-6.493-0.165
		c-0.325,0.328-0.601,0.704-0.816,1.113c-0.21,0.411-0.363,0.852-0.439,1.305c-0.155,0.905-0.027,1.849,0.367,2.659
		c0.39,0.81,1.031,1.478,1.792,1.883c0.759,0.408,1.633,0.555,2.426,0.405c-0.792-0.146-1.501-0.477-2.058-0.955
		C-5.78,5.77-6.189,5.161-6.404,4.506C-6.621,3.852-6.651,3.15-6.497,2.5c0.077-0.324,0.194-0.638,0.359-0.925
		c0.159-0.29,0.361-0.557,0.596-0.789c0.232-0.236,0.499-0.436,0.789-0.597c0.288-0.165,0.601-0.281,0.926-0.359
		c0.324-0.078,0.663-0.106,1.002-0.094c0.338,0.016,0.677,0.076,1.004,0.186c0.656,0.216,1.266,0.624,1.74,1.183
		c0.478,0.558,0.808,1.267,0.953,2.059C1.021,2.37,0.873,1.497,0.465,0.738z"/>
	<path fill="#0278C0" d="M2.77-1.413C2.377-1.921,1.92-2.378,1.412-2.771l4.737-4.737C6.33-7.689,6.571-7.788,6.828-7.788
		c0.529,0,0.96,0.431,0.96,0.96c0,0.257-0.1,0.498-0.281,0.679L2.77-1.413z"/>
	<path fill="#0278C0" d="M0,15c-8.284,0-15-6.716-15-15c0-8.284,6.716-15,15-15c8.284,0,15,6.716,15,15C15,8.284,8.284,15,0,15z
		 M6.828-9.134c-0.616,0-1.195,0.24-1.63,0.675L0.249-3.51c-1.024-0.526-2.184-0.825-3.412-0.825c-4.135,0-7.498,3.364-7.498,7.498
		c0,4.135,3.364,7.498,7.498,7.498c4.134,0,7.498-3.364,7.498-7.498c0-1.229-0.299-2.388-0.825-3.413l4.949-4.949
		c0.436-0.436,0.675-1.015,0.675-1.63C9.133-8.1,8.099-9.134,6.828-9.134z"/>
</symbol>
<g id="Such_x5F_Leiste">
	
		<use xlink:href="#Such_x5F_Icon"  width="30" height="30" id="XMLID_1_" x="-15" y="-15" transform="matrix(1 0 0 -1 15.0001 15)" overflow="visible"/>
</g>
</svg>
