<svg xmlns="http://www.w3.org/2000/svg" preserveAspectRatio="xMidYMid" width="44" height="44" viewBox="0 0 44 44"><defs><style>.cls-1{fill:#fff;fill-rule:evenodd}</style></defs><path d="M22.002 44.007c-12.134 0-22.005-9.872-22.005-22.005C-.003 9.868 9.868-.003 22.002-.003c12.133 0 22.005 9.871 22.005 22.005 0 12.133-9.872 22.005-22.005 22.005zm0-42.518c-11.31 0-20.513 9.202-20.513 20.513 0 11.31 9.203 20.513 20.513 20.513 11.311 0 20.513-9.203 20.513-20.513 0-11.311-9.202-20.513-20.513-20.513zm-2.235 28.019a.746.746 0 1 1-1.056-1.055l6.761-6.768-6.761-6.767a.748.748 0 0 1 1.056-1.057l7.287 7.296a.744.744 0 0 1 0 1.056l-7.287 7.295z" class="cls-1"/></svg>