<svg xmlns="http://www.w3.org/2000/svg" preserveAspectRatio="xMidYMid" width="10.91" height="17.438" viewBox="0 0 10.91 17.438"><defs><style>.cls-1{fill:#f6bd04;fill-rule:evenodd}</style></defs><path d="M9.297 9.438c-.728.739-1.543 1.217-2.443 1.434-.128.044-.214.131-.214.305v5.652a.673.673 0 0 1-.171.435.652.652 0 0 1-.429.173h-1.2a.652.652 0 0 1-.429-.173.673.673 0 0 1-.171-.435v-.435a.295.295 0 0 0-.3-.304h-.429a.65.65 0 0 1-.428-.174.669.669 0 0 1-.172-.435v-.217a.59.59 0 0 1 .6-.609h.429c.171 0 .3-.131.3-.304v-.435a.296.296 0 0 0-.3-.305h-.429a.59.59 0 0 1-.6-.608v-.218a.59.59 0 0 1 .6-.608h.429c.171 0 .3-.131.3-.305v-.695c0-.174-.086-.261-.214-.305a5.398 5.398 0 0 1-2.443-1.434 5.568 5.568 0 0 1 0-7.827 5.377 5.377 0 0 1 7.714 0 5.568 5.568 0 0 1 0 7.827zM7.583 3.351a3 3 0 0 0-4.286 0 3.106 3.106 0 0 0 0 4.347 3 3 0 0 0 4.286 0 3.106 3.106 0 0 0 0-4.347z" class="cls-1"/></svg>