<svg id="_-deT_1" data-name="-deT 1" xmlns="http://www.w3.org/2000/svg" viewBox="0 0 458.96 123.51"><defs><style>.cls-1,.cls-2{fill:#fff;fill-rule:evenodd}.cls-2{fill:#fbb800}</style></defs><title>logo</title><path class="cls-1" d="M347.91 82.87V45.64h30.65c3 0 6.58 1.51 6.57 4.95v17c0 3.44-3.54 5-6.57 5h-23.31v10.28h-7.33zm8.68-31.5a1.39 1.39 0 0 0-1.34 1.38V65.4a1.38 1.38 0 0 0 1.38 1.38h19.81a1.38 1.38 0 0 0 1.38-1.38V52.74a1.38 1.38 0 0 0-1.38-1.37h-19.86z" transform="translate(-1.63 -2.85)"/><path class="cls-2" d="M1.63 102.9h24.79v-.32A28.76 28.76 0 0 1 2 78.34h-.37v24.56z" transform="translate(-1.63 -2.85)"/><path class="cls-1" d="M37.41 110l.77 12.39v.11h-2v-.1l-.18-5.11c-.07-1.24-.11-2.07-.13-2.75v-1.22l-.42 1.41c-.19.64-.4 1.31-.64 2.06L33 122.34v.08h-1.58v-.08l-1.63-5.39c-.23-.8-.43-1.5-.61-2.17-.13-.48-.25-1-.37-1.45q0 .82-.06 1.66-.05 1.17-.12 2.4l-.26 5v.1h-1.93v-.11l.85-12.38v-.1h2.29v.08l1.69 5.6.16.42c.35 1.2.62 2.14.89 3.21.32-1.17.61-2.13 1-3.51v-.13l1.81-5.57v-.08h2.25v.08zm268.75 0a5.5 5.5 0 0 1 1.43.43h.08v.09l-.46 1.53v.12l-.11-.05a6.08 6.08 0 0 0-1.12-.38 6.63 6.63 0 0 0-1.51-.17 4.86 4.86 0 0 0-3.48 1.3 4.65 4.65 0 0 0-1.31 3.41 4.51 4.51 0 0 0 1.28 3.33 4.81 4.81 0 0 0 3.44 1.23 8.09 8.09 0 0 0 1.53-.14 4.78 4.78 0 0 0 1.21-.39l.12-.06v.13l.35 1.51v.08h-.07a5.51 5.51 0 0 1-1.51.46 11.66 11.66 0 0 1-2 .16 6.76 6.76 0 0 1-4.79-1.71 6.16 6.16 0 0 1-1.79-4.59 6.35 6.35 0 0 1 1.94-4.72 7.14 7.14 0 0 1 5-1.81 10.11 10.11 0 0 1 1.79.15zm19.37 1.79v10.7h-2V110h9.37v12.45h-2v-10.7h-5.33zm32.47 9.03a5.78 5.78 0 0 1-4.36 1.82 5.57 5.57 0 0 1-4.2-1.75 6.61 6.61 0 0 1-1.63-4.55 6.85 6.85 0 0 1 1.68-4.7 5.73 5.73 0 0 1 4.32-1.84 5.57 5.57 0 0 1 4.21 1.74 6.59 6.59 0 0 1 1.63 4.54 6.84 6.84 0 0 1-1.63 4.73zm-7-1.16a3.49 3.49 0 0 0 5.38 0 5.55 5.55 0 0 0 1-3.46 5.43 5.43 0 0 0-1.07-3.37 3.45 3.45 0 0 0-5.34 0 5.62 5.62 0 0 0-1.06 3.48 5.31 5.31 0 0 0 1.05 3.36zm25.81-1.83v4.7h-2.07v-12.37h.09c.45-.06 1-.13 1.59-.18s1.31-.08 2.11-.08a9.9 9.9 0 0 1 2.44.26 4.57 4.57 0 0 1 1.79.86 3.45 3.45 0 0 1 1 1.21 3.5 3.5 0 0 1 .33 1.51 3.62 3.62 0 0 1-1.47 3.1 7.17 7.17 0 0 1-4.19 1.09h-.9l-.68-.07zm.71-6.23a6.14 6.14 0 0 0-.71.08v4.42a5.05 5.05 0 0 0 .72.1h1a4.43 4.43 0 0 0 2.56-.65 2.07 2.07 0 0 0 .91-1.76 1.91 1.91 0 0 0-.83-1.66 4.36 4.36 0 0 0-2.45-.61h-1.16zm28.17.22v10.72h-2.09v-10.73h-4.32V110H410v1.81h-4.34zm29.92 10.72h-2.05v-.07l-1.24-3.67h-4.42l-1.22 3.67v.07h-2.14l.05-.14 4.33-12.4v-.07h2.37v.07l4.37 12.39.05.14h-.15zm-5.73-10c-.09.32-.19.63-.29 1l-1.27 3.62h3.54l-1.29-3.62c-.1-.31-.21-.64-.31-1l-.19-.64-.18.66zm-370.79 10H57v-.07l-1.24-3.67h-4.38l-1.22 3.67v.07H48l.05-.14L52.4 110v-.07h2.37v.07l4.37 12.39.05.14h-.1zm-5.73-10c-.09.32-.19.63-.29.95l-1.27 3.62h3.54L54 113.52c-.1-.31-.21-.64-.31-1l-.19-.64-.18.66zm19.73-.75v10.62H71V110h8.48v1.83h-6.39zm28.61 10.7h-2.06v-.07l-1.24-3.67H94l-1.22 3.67v.07h-2.17l.05-.14L95 110v-.07h2.37v.07l4.37 12.39.05.14h-.09zm-5.73-10c-.09.32-.19.63-.29.95l-1.27 3.62h3.54l-1.29-3.62c-.1-.31-.21-.64-.31-1l-.19-.64-.18.66zm20.26 4.21h-1v-1.5h1a5.67 5.67 0 0 0 2.67-.57 1.63 1.63 0 0 0 1-1.4 1.38 1.38 0 0 0-.73-1.21 4.06 4.06 0 0 0-2.08-.46 7 7 0 0 0-1.52.18 10 10 0 0 0-1.65.53h-.11v-.11l-.43-1.34v-.09h.08a7.55 7.55 0 0 1 1.86-.66 9.84 9.84 0 0 1 2.13-.23 6 6 0 0 1 3.35.82 2.66 2.66 0 0 1 1.26 2.29 2.62 2.62 0 0 1-.84 2 4.23 4.23 0 0 1-1.82 1 4.6 4.6 0 0 1 2.23.93 2.72 2.72 0 0 1 1 2.17 3.06 3.06 0 0 1-1.53 2.67 7.84 7.84 0 0 1-4.13 1 11.34 11.34 0 0 1-2.11-.19 7.74 7.74 0 0 1-1.78-.55H113v-.09l.4-1.44v-.12h.11a9.32 9.32 0 0 0 1.7.5 9.21 9.21 0 0 0 1.75.18 5 5 0 0 0 2.53-.56 1.65 1.65 0 0 0-.11-3 7.14 7.14 0 0 0-3.12-.56zm25.2-6.87h2.1v12.61h-1.93v-4.89-2.8c0-.8 0-1.37.07-2-.27.55-.56 1.12-.86 1.7s-.74 1.39-1.12 2.05l-3.51 5.88v.05h-2v-12.51h1.92v7.49c0 .69-.05 1.35-.09 2 .24-.5.5-1 .76-1.52s.69-1.32 1.09-2l3.52-5.9v-.05h.06zm15.92 12.61h-2v-12.52h2.07V115h5.4v-5.12h2.07v12.61h-2.07v-5.65h-5.4v5.65h-.11zM246.63 45.64H254v28.53l22.29-27.8a1.54 1.54 0 0 1 1.39-.73h6.23v37.23h-7.32v-27.1c-6.38 8.79-14.88 17.58-21.25 26.37a1.54 1.54 0 0 1-1.39.73h-7.26V45.64zM297.29 82.87V50.5c0-3.63 3.67-4.87 6.88-4.87H334v5.75h-28a1.38 1.38 0 0 0-1.38 1.38v30.1h-7.32z" transform="translate(-1.63 -2.85)"/><path class="cls-2" d="M231.14 71.77a7.16 7.16 0 1 0-7.14-7.16 7.17 7.17 0 0 0 7.14 7.16z" transform="translate(-1.63 -2.85)"/><path class="cls-2" d="M231.15 126.36a61.75 61.75 0 1 0-61.75-61.75 61.75 61.75 0 0 0 61.75 61.75zm2.09-4.27V80H229v42.07a57.52 57.52 0 0 1 0-115v42h4.24v-42a57.52 57.52 0 0 1 0 115.02z" transform="translate(-1.63 -2.85)"/><path class="cls-1" d="M35.15 61.34A1.38 1.38 0 0 1 33.77 60V45.65h-7.33v37.22h7.33V68.46a1.38 1.38 0 0 1 1.38-1.38H55a1.38 1.38 0 0 1 1.38 1.38v14.41h7.33V45.65h-7.36V60A1.38 1.38 0 0 1 55 61.34H35.15zM85.76 72.55a1.38 1.38 0 0 0-1.36 1.38v8.94h-7.33V50.93c0-3.67 3.67-5.29 6.91-5.29h23.44c3.24 0 6.91 1.62 6.91 5.29v31.94H107v-8.94a1.38 1.38 0 0 0-1.36-1.38H85.76zm0-21.17a1.38 1.38 0 0 0-1.38 1.38v12.68a1.38 1.38 0 0 0 1.38 1.38h19.83a1.38 1.38 0 0 0 1.41-1.38V52.76a1.38 1.38 0 0 0-1.38-1.38H85.78zM164.94 45.65v32.06c0 3.14-2.76 4.77-5.57 5.16h-26.1c-2.81-.39-5.57-2-5.57-5.16V45.65h7.32v30.46a1.53 1.53 0 0 0 1.56 1h4.54a1.52 1.52 0 0 0 1.55-1V45.65H150v30.46a1.53 1.53 0 0 0 1.59 1H156a1.53 1.53 0 0 0 1.59-1V45.65h7.31z" transform="translate(-1.63 -2.85)"/><path class="cls-2" d="M1.63 26.66h24.79V27A28.76 28.76 0 0 0 2 51.22h-.37V26.66zM460.59 102.9H435.8v-.32a28.76 28.76 0 0 0 24.46-24.24h.34v24.56zM460.59 26.66H435.8V27a28.76 28.76 0 0 1 24.46 24.24h.34V26.66z" transform="translate(-1.63 -2.85)"/><path class="cls-1" d="M187 72.55a1.38 1.38 0 0 0-1.36 1.38v8.94h-7.32V50.93c0-3.67 3.67-5.29 6.91-5.29h23.47c3.24 0 6.91 1.62 6.91 5.29v31.94h-7.33v-8.94a1.38 1.38 0 0 0-1.36-1.38H187zm0-21.17a1.38 1.38 0 0 0-1.38 1.38v12.68a1.38 1.38 0 0 0 1.38 1.38h19.83a1.38 1.38 0 0 0 1.38-1.38V52.76a1.38 1.38 0 0 0-1.38-1.38h-19.78zM407.22 72.55a1.38 1.38 0 0 0-1.36 1.38v8.94h-7.32V50.93c0-3.67 3.67-5.29 6.91-5.29h23.44c3.24 0 6.91 1.62 6.91 5.29v31.94h-7.33v-8.94a1.38 1.38 0 0 0-1.36-1.38h-19.89zm0-21.17a1.38 1.38 0 0 0-1.38 1.38v12.68a1.38 1.38 0 0 0 1.38 1.38h19.83a1.38 1.38 0 0 0 1.38-1.38V52.76a1.38 1.38 0 0 0-1.38-1.38h-19.81z" transform="translate(-1.63 -2.85)"/></svg>