<svg xmlns="http://www.w3.org/2000/svg" preserveAspectRatio="xMidYMid" width="11.97" height="14.844" viewBox="0 0 11.97 14.844"><defs><style>.cls-1{fill:#f6bd04;fill-rule:evenodd}</style></defs><path d="M5.772-.006C2.791.097.315 2.398.028 5.336a5.93 5.93 0 0 0 .08 1.701s.01.064.04.186c.093.408.231.803.403 1.175.6 1.406 1.988 3.759 5.101 6.319.19.158.47.158.664 0 3.113-2.557 4.5-4.91 5.103-6.322.176-.372.311-.764.403-1.175.028-.119.04-.186.04-.186.071-.365.108-.74.108-1.123 0-3.342-2.796-6.036-6.198-5.917zm.212 8.863c-1.606 0-2.907-1.287-2.907-2.876s1.301-2.877 2.907-2.877 2.907 1.288 2.907 2.877c0 1.589-1.301 2.876-2.907 2.876z" class="cls-1"/></svg>