<?xml version="1.0" encoding="utf-8"?>
<!-- Generator: Adobe Illustrator 17.0.0, SVG Export Plug-In . SVG Version: 6.00 Build 0)  -->
<!DOCTYPE svg PUBLIC "-//W3C//DTD SVG 1.1//EN" "http://www.w3.org/Graphics/SVG/1.1/DTD/svg11.dtd">
<svg version="1.1" id="Layer_1" xmlns="http://www.w3.org/2000/svg" xmlns:xlink="http://www.w3.org/1999/xlink" x="0px" y="0px"
	 width="206.75px" height="63px" viewBox="0 0 206.75 63" enable-background="new 0 0 206.75 63" xml:space="preserve">
<g>
	<g>
		<path fill="#0075BF" d="M20.16,40.125l0.046-6.991c5.896-1.932,9.864-2.478,16.124-2.478c8.823,0,17.349,1.931,25.096,5.594
			L37.603,1.862L3,51.812c9.747-6.831,21.301-10.617,33.418-10.617c6.26,0,10.252,0.553,16.148,2.485l0.022,7.222
			c-5.201-1.705-10.641-2.569-16.17-2.569c-11.575,0-22.57,3.769-31.589,10.721h72.394l-4.686-6.764
			c-9.742-9.505-22.572-14.734-36.207-14.734C30.801,37.556,25.361,38.421,20.16,40.125z"/>
	</g>
</g>
<g>
	<path fill="#0075BF" d="M91.901,7.984h6.56c3.043,0,5.242,0.443,6.598,1.33c1.355,0.887,2.033,2.287,2.033,4.202
		c0,1.29-0.333,2.363-0.998,3.219c-0.665,0.857-1.623,1.396-2.872,1.617v0.151c1.552,0.292,2.693,0.869,3.423,1.731
		c0.731,0.862,1.096,2.028,1.096,3.499c0,1.985-0.693,3.539-2.078,4.663c-1.385,1.124-3.313,1.685-5.781,1.685h-7.98V7.984z
		 M95.514,17.113h3.476c1.511,0,2.615-0.239,3.31-0.718c0.695-0.479,1.043-1.292,1.043-2.441c0-1.038-0.376-1.788-1.126-2.252
		c-0.751-0.463-1.942-0.695-3.575-0.695h-3.129V17.113z M95.514,20.045v6.998h3.839c1.511,0,2.653-0.29,3.424-0.869
		c0.771-0.579,1.156-1.494,1.156-2.743c0-1.149-0.393-2-1.179-2.554c-0.786-0.554-1.98-0.831-3.582-0.831H95.514z"/>
	<path fill="#0075BF" d="M122.418,30.081l-0.71-2.328h-0.121c-0.806,1.018-1.617,1.711-2.433,2.078
		c-0.816,0.368-1.864,0.552-3.144,0.552c-1.642,0-2.925-0.443-3.847-1.33c-0.922-0.887-1.383-2.141-1.383-3.763
		c0-1.723,0.64-3.023,1.92-3.9c1.279-0.877,3.229-1.355,5.849-1.436l2.887-0.091v-0.892c0-1.068-0.249-1.867-0.748-2.396
		c-0.499-0.529-1.272-0.794-2.32-0.794c-0.856,0-1.678,0.126-2.464,0.378c-0.786,0.252-1.542,0.549-2.267,0.892l-1.149-2.539
		c0.907-0.473,1.899-0.834,2.978-1.081c1.078-0.247,2.096-0.37,3.053-0.37c2.126,0,3.731,0.464,4.814,1.391
		c1.083,0.927,1.625,2.383,1.625,4.368v11.26H122.418z M117.128,27.663c1.29,0,2.325-0.36,3.106-1.081
		c0.781-0.72,1.171-1.731,1.171-3.03v-1.451l-2.146,0.091c-1.673,0.06-2.889,0.34-3.65,0.839c-0.761,0.499-1.141,1.262-1.141,2.29
		c0,0.746,0.221,1.323,0.665,1.731C115.576,27.459,116.241,27.663,117.128,27.663z"/>
	<path fill="#0075BF" d="M129.703,8.936c0-0.635,0.174-1.123,0.521-1.466c0.348-0.342,0.844-0.514,1.489-0.514
		c0.625,0,1.111,0.171,1.459,0.514c0.348,0.343,0.521,0.831,0.521,1.466c0,0.605-0.174,1.081-0.521,1.428
		c-0.348,0.348-0.834,0.521-1.459,0.521c-0.645,0-1.141-0.174-1.489-0.521C129.877,10.017,129.703,9.54,129.703,8.936z
		 M133.466,30.081h-3.552V13.364h3.552V30.081z"/>
	<path fill="#0075BF" d="M165.373,30.081h-4.429l-10.867-17.608h-0.121l0.076,0.982c0.141,1.874,0.212,3.587,0.212,5.139v11.487
		h-3.28V7.984h4.383l10.837,17.518h0.091c-0.02-0.232-0.06-1.076-0.121-2.532c-0.06-1.456-0.091-2.592-0.091-3.408V7.984h3.31
		V30.081z"/>
	<path fill="#0075BF" d="M182.618,30.081l-0.499-2.192h-0.181c-0.494,0.776-1.197,1.386-2.108,1.829
		c-0.912,0.443-1.952,0.665-3.121,0.665c-2.025,0-3.537-0.504-4.534-1.511c-0.998-1.008-1.496-2.534-1.496-4.58V13.364h3.582v10.308
		c0,1.28,0.262,2.24,0.786,2.879c0.524,0.64,1.345,0.96,2.464,0.96c1.491,0,2.587-0.446,3.287-1.338
		c0.7-0.892,1.05-2.385,1.05-4.481v-8.328h3.567v16.717H182.618z"/>
	<path fill="#0075BF" d="M205.305,21.692c0,2.731-0.701,4.862-2.101,6.393c-1.401,1.532-3.35,2.297-5.849,2.297
		c-1.562,0-2.942-0.353-4.141-1.058c-1.199-0.705-2.121-1.718-2.766-3.038c-0.645-1.32-0.967-2.851-0.967-4.595
		c0-2.71,0.695-4.826,2.086-6.348c1.391-1.521,3.35-2.282,5.88-2.282c2.418,0,4.333,0.778,5.743,2.335
		C204.6,16.954,205.305,19.053,205.305,21.692z M193.138,21.692c0,3.859,1.426,5.789,4.277,5.789c2.821,0,4.232-1.929,4.232-5.789
		c0-3.819-1.421-5.728-4.262-5.728c-1.491,0-2.572,0.494-3.242,1.481C193.473,18.433,193.138,19.849,193.138,21.692z"/>
</g>
<g>
	<path fill="#404B5B" d="M92.108,41.029v-2.241c2.634,0.172,5.663,0.246,10.464,0.246c4.826,0,7.904-0.074,10.464-0.246v2.241
		c-2.388-0.172-5.244-0.246-9.578-0.271c-0.345,1.477-0.665,2.634-1.059,3.792c3.644,0,5.564-0.049,7.781-0.123
		c-0.172,0.936-0.197,1.822-0.197,3.693v7.239c0,1.724,0.049,2.462,0.197,3.644h-2.413v-1.896H97.254v2.462h-2.413
		c0.172-1.133,0.197-1.92,0.197-3.595v-7.953c0-1.724-0.049-2.462-0.197-3.644c1.379,0.074,3.496,0.123,5.638,0.172
		c0.32-1.206,0.492-2.511,0.566-3.792C97.106,40.783,94.398,40.881,92.108,41.029z M107.767,46.249H97.254v3.472h10.514V46.249z
		 M97.254,55.334h10.514v-3.866H97.254V55.334z"/>
	<path fill="#404B5B" d="M147.779,57.033c-0.64,0.886-0.911,1.379-1.059,1.748c-0.394-0.566-0.985-1.28-1.551-1.847
		c0.714-0.665,0.936-1.551,0.936-2.881V46.47c-1.206,0-1.97,0.049-2.561,0.123v-2.118c0.591,0.074,1.354,0.123,2.29,0.123
		c0.936,0,1.674-0.049,2.265-0.123c-0.123,0.739-0.197,1.945-0.197,3.078v6.426c0.542-0.64,0.96-1.256,1.428-2.068
		c0.222,0.763,0.566,1.428,0.862,1.748L147.779,57.033z M147.41,42.925c-0.542-1.256-1.379-2.536-2.364-3.619l1.97-1.108
		c0.739,1.256,1.625,2.536,2.438,3.595L147.41,42.925z M151.374,56.442c-0.271-0.492-0.837-1.108-1.403-1.453
		c1.822-1.428,3.57-3.693,4.924-6.771c-1.994,0.025-3.841,0.098-5.048,0.222v-2.068c1.354,0.172,3.373,0.197,5.589,0.197
		c0.222-1.009,0.394-2.265,0.419-2.807c0.739,0.32,1.797,0.64,2.339,0.714c0.295,0.049,0.32,0.148,0.025,0.345
		c-0.172,0.098-0.419,0.689-0.763,1.748h2.265c2.265,0,4.407-0.049,5.762-0.197v2.068c-1.354-0.148-3.496-0.222-5.762-0.222h-2.807
		c-0.295,0.813-0.714,1.65-1.182,2.487h3.127c1.748,0.025,3.644-0.025,4.456-0.098c-0.074,0.443-0.098,0.837-0.098,1.797v3.644
		c0,1.108,0.074,2.019,0.197,3.078h-2.117v-1.354h-6.131v1.699h-2.068c0.148-1.133,0.197-1.97,0.197-3.078v-2.216
		C152.729,54.891,152.088,55.629,151.374,56.442z M159.499,40.487c0-1.699-0.049-2.659-0.148-3.349
		c0.64,0.098,1.551,0.148,2.167,0.148c0.295,0,0.345,0.197,0.098,0.345c-0.222,0.123-0.271,0.222-0.271,0.517v2.339
		c1.33-0.025,2.61-0.074,3.398-0.197v2.044c-0.788-0.123-2.068-0.197-3.398-0.222v1.945h-1.847v-1.945h-4.26v2.142h-1.896v-2.118
		c-1.108,0.025-2.142,0.098-2.832,0.197V40.29c0.714,0.123,1.724,0.172,2.832,0.197c0-1.625-0.025-2.561-0.148-3.25
		c0.64,0.098,1.601,0.148,2.216,0.148c0.295,0,0.345,0.197,0.098,0.345c-0.222,0.123-0.271,0.222-0.271,0.517v2.241H159.499z
		 M161.297,52.306h-6.131v3.866h6.131V52.306z"/>
</g>
</svg>
